<svg xmlns="http://www.w3.org/2000/svg" width="96" height="96" viewBox="0 0 96 96" role="img" aria-label="ToyTools"><defs><linearGradient id="g" x1="0" y1="0" x2="1" y2="1"><stop offset="0" stop-color="#24463A"/><stop offset="1" stop-color="#16302A"/></linearGradient><radialGradient id="hl" cx="0.3" cy="0.22" r="0.85"><stop offset="0" stop-color="#fff" stop-opacity="0.14"/><stop offset="0.6" stop-color="#fff" stop-opacity="0"/></radialGradient><linearGradient id="sh" x1="0" y1="0" x2="0" y2="1"><stop offset="0.55" stop-color="#000" stop-opacity="0"/><stop offset="1" stop-color="#000" stop-opacity="0.10"/></linearGradient><radialGradient id="mark" gradientUnits="userSpaceOnUse" cx="38" cy="34" r="52"><stop offset="0" stop-color="#FBE6A8"/><stop offset="1" stop-color="#EFCB74"/></radialGradient></defs><rect width="96" height="96" fill="url(#g)"/><rect width="96" height="96" fill="url(#hl)"/><rect width="96" height="96" fill="url(#sh)"/><rect x="24" y="40" width="6" height="6" rx="1.8" fill="#FBE6A8" fill-opacity="0.2"/><rect x="24" y="48.5" width="6" height="6" rx="1.8" fill="#FBE6A8" fill-opacity="0.2"/><rect x="24" y="57" width="6" height="6" rx="1.8" fill="#FBE6A8" fill-opacity="0.2"/><rect x="33.5" y="40" width="6" height="6" rx="1.8" fill="#FBE6A8" fill-opacity="0.2"/><rect x="33.5" y="48.5" width="6" height="6" rx="1.8" fill="#FBE6A8" fill-opacity="0.2"/><rect x="33.5" y="57" width="6" height="6" rx="1.8" fill="#FBE6A8" fill-opacity="0.2"/><rect x="24" y="66" width="15.5" height="6" rx="2.1" fill="#FBE6A8" fill-opacity="0.34"/><rect x="56.5" y="40" width="6" height="6" rx="1.8" fill="#FBE6A8" fill-opacity="0.2"/><rect x="56.5" y="48.5" width="6" height="6" rx="1.8" fill="#FBE6A8" fill-opacity="0.2"/><rect x="56.5" y="57" width="6" height="6" rx="1.8" fill="#FBE6A8" fill-opacity="0.2"/><rect x="66" y="40" width="6" height="6" rx="1.8" fill="#FBE6A8" fill-opacity="0.2"/><rect x="66" y="48.5" width="6" height="6" rx="1.8" fill="#FBE6A8" fill-opacity="0.2"/><rect x="66" y="57" width="6" height="6" rx="1.8" fill="#FBE6A8" fill-opacity="0.2"/><rect x="56.5" y="66" width="15.5" height="6" rx="2.1" fill="#FBE6A8" fill-opacity="0.34"/><g fill="url(#mark)"><rect x="24" y="24" width="48" height="13" rx="4" /><rect x="42" y="24" width="12" height="48" rx="4" /></g></svg>
